<svg xmlns="http://www.w3.org/2000/svg" width="847" height="526">
    <defs>
        <filter id="a" width="847" height="526" x="0" y="0" filterUnits="userSpaceOnUse">
            <feOffset dy="15" in="SourceAlpha"/>
            <feGaussianBlur result="blurOut" stdDeviation="4.899"/>
            <feFlood flood-color="#141414" result="floodOut"/>
            <feComposite in="floodOut" in2="blurOut" operator="atop"/>
            <feComponentTransfer>
                <feFuncA slope=".23" type="linear"/>
            </feComponentTransfer>
            <feMerge>
                <feMergeNode/>
                <feMergeNode in="SourceGraphic"/>
            </feMerge>
        </filter>
        <linearGradient id="b" x1="0%" x2="85.717%" y1="0%" y2="51.504%">
            <stop offset="0%" stop-color="#32C2F1"/>
            <stop offset="100%" stop-color="#81F9D0"/>
        </linearGradient>
    </defs>
    <path fill="#FFF" fill-rule="evenodd" d="M41 8h760c11.046 0 20 8.954 20 20v439c0 11.046-8.954 20-20 20H41c-11.046 0-20-8.954-20-20V28c0-11.046 8.954-20 20-20z" filter="url(#a)"/>
    <path fill="url(#b)" d="M41 8h760c11.046 0 20 8.954 20 20v439c0 11.046-8.954 20-20 20H41c-11.046 0-20-8.954-20-20V28c0-11.046 8.954-20 20-20z"/>
</svg>
