<svg xmlns="http://www.w3.org/2000/svg" width="234" height="203">
    <defs>
        <linearGradient id="a" x1="0%" x2="85.717%" y1="0%" y2="51.504%">
            <stop offset="0%" stop-color="#32C2F1"/>
            <stop offset="100%" stop-color="#81F9D0"/>
        </linearGradient>
    </defs>
    <path fill="#FC8F46" fill-rule="evenodd" d="M10.004 65.014c-2.303-5.636-1.362-13.102 3.746-16.41 3.679-2.382 8.393-2.07 12.77-2.257 4.378-.187 9.364-1.403 11.324-5.325 2.092-4.185-.319-9.133-.396-13.812-.118-7.181 5.638-13.489 12.388-15.927 6.75-2.437 14.234-1.698 21.23-.101 7.42 1.694 14.959 4.334 22.453 3.006 5.745-1.019 10.803-4.273 15.791-7.302 4.988-3.028 10.321-5.973 16.149-6.249 5.828-.276 12.233 2.952 13.689 8.607.512 1.987.386 4.087.78 6.102 1.399 7.147 8.932 11.48 16.106 12.704 7.174 1.224 14.602.314 21.739 1.736 7.138 1.422 14.491 6.254 15.294 13.493.398 3.589-.883 7.154-.941 10.765-.142 8.854 6.945 16.155 14.409 20.91 7.465 4.755 15.976 8.249 21.871 14.853 5.895 6.604 7.952 17.949 1.361 23.857-5.773 5.176-15.576 4.073-20.761 9.838-4.686 5.21-3.267 13.439-.447 19.856 2.819 6.417 6.839 12.749 6.542 19.753-.451 10.633-11.171 18.463-21.743 19.606-10.573 1.144-20.977-2.64-31.029-6.111-10.052-3.471-20.765-6.724-31.168-4.518-16.598 3.52-27.487 19.674-43.02 26.509-10.245 4.508-22.012 4.651-32.942 2.243-4.222-.929-8.341-2.218-12.379-3.748-9.561-3.622-13.821-14.837-9.063-23.893.607-1.154 1.03-2.375 1.162-3.7.407-4.081-2.2-7.931-5.427-10.458-3.227-2.527-7.087-4.092-10.589-6.22-9.804-5.957-16.614-16.604-17.915-28.008-1.302-11.404 2.935-23.313 11.144-31.328 3.641-3.554 10.018-7.949 8.655-13.884-1.218-5.302-8.588-9.216-10.783-14.587z" opacity=".302"/>
    <path fill="url(#a)" d="M10.004 65.014c-2.303-5.636-1.362-13.102 3.746-16.41 3.679-2.382 8.393-2.07 12.77-2.257 4.378-.187 9.364-1.403 11.324-5.325 2.092-4.185-.319-9.133-.396-13.812-.118-7.181 5.638-13.489 12.388-15.927 6.75-2.437 14.234-1.698 21.23-.101 7.42 1.694 14.959 4.334 22.453 3.006 5.745-1.019 10.803-4.273 15.791-7.302 4.988-3.028 10.321-5.973 16.149-6.249 5.828-.276 12.233 2.952 13.689 8.607.512 1.987.386 4.087.78 6.102 1.399 7.147 8.932 11.48 16.106 12.704 7.174 1.224 14.602.314 21.739 1.736 7.138 1.422 14.491 6.254 15.294 13.493.398 3.589-.883 7.154-.941 10.765-.142 8.854 6.945 16.155 14.409 20.91 7.465 4.755 15.976 8.249 21.871 14.853 5.895 6.604 7.952 17.949 1.361 23.857-5.773 5.176-15.576 4.073-20.761 9.838-4.686 5.21-3.267 13.439-.447 19.856 2.819 6.417 6.839 12.749 6.542 19.753-.451 10.633-11.171 18.463-21.743 19.606-10.573 1.144-20.977-2.64-31.029-6.111-10.052-3.471-20.765-6.724-31.168-4.518-16.598 3.52-27.487 19.674-43.02 26.509-10.245 4.508-22.012 4.651-32.942 2.243-4.222-.929-8.341-2.218-12.379-3.748-9.561-3.622-13.821-14.837-9.063-23.893.607-1.154 1.03-2.375 1.162-3.7.407-4.081-2.2-7.931-5.427-10.458-3.227-2.527-7.087-4.092-10.589-6.22-9.804-5.957-16.614-16.604-17.915-28.008-1.302-11.404 2.935-23.313 11.144-31.328 3.641-3.554 10.018-7.949 8.655-13.884-1.218-5.302-8.588-9.216-10.783-14.587z"/>
</svg>
